<svg id="bold" enable-background="new 0 0 24 24" height="512" viewBox="0 0 24 24" width="512" xmlns="http://www.w3.org/2000/svg"><g id="XMLID_1_"><g><g><path d="m15.55 6.8c3.38-2.32 6.79-3.74 6.93-3.8.21-.09.46-.08.66.04s.34.32.37.55c.06.41 1.28 10.1-1.8 15.42-2.21 3.82-4.56 5.04-6.67 5.04-1.27 0-2.44-.44-3.44-1.01-2.67-1.54-5.1-4.66-1.57-10.78.38-.65.85-1.3 1.41-1.92 1.02-1.16 2.4-2.35 4.11-3.54z" fill="#D70040"/></g><g><path d="m15.57 4.99c-.29.19-.58.38-.87.58-1.01.69-1.91 1.39-2.7 2.1l-.09-.08c-.78-.69-1.67-1.38-2.65-2.05-.29-.2-.57-.39-.86-.58 1.47-2.63 2.9-4.52 2.98-4.62.14-.18.36-.29.59-.29.24 0 .46.11.6.29.07.1 1.52 2 3 4.65z" fill="#D70040"/></g><g><path d="m1.54 2.96c.14.06 3.52 1.49 6.87 3.81.92.63 1.76 1.28 2.5 1.94-.21.21-.41.42-.59.63-.63.7-1.16 1.43-1.59 2.17-4.09 7.09-.82 10.82 1.43 12.39-.4.09-.82.14-1.24.14-2.11 0-4.48-1.22-6.68-5.07-3.05-5.33-1.79-15.01-1.73-15.42.03-.23.17-.43.37-.55.2-.11.45-.13.66-.04z" fill="#D70040"/></g></g></g></svg>