<?xml version="1.0" standalone="no"?>
<!DOCTYPE svg PUBLIC "-//W3C//DTD SVG 20010904//EN"
 "http://www.w3.org/TR/2001/REC-SVG-20010904/DTD/svg10.dtd">
<svg version="1.0" xmlns="http://www.w3.org/2000/svg"
 width="700.000000pt" height="700.000000pt" viewBox="0 0 700.000000 700.000000"
 preserveAspectRatio="xMidYMid meet">
<metadata>
Created by potrace 1.14, written by Peter Selinger 2001-2017
</metadata>
<g transform="translate(0.000000,700.000000) scale(0.100000,-0.100000)"
fill="#000000" stroke="none">
<path d="M3445 6980 c-81 -20 -115 -54 -280 -290 -82 -117 -328 -486 -371
-557 -104 -172 -288 -480 -312 -525 l-32 -56 28 -19 c15 -10 32 -20 37 -23 54
-26 617 -434 715 -517 14 -12 70 -59 125 -105 55 -46 108 -91 117 -100 22 -22
30 -22 55 0 11 9 44 37 73 62 29 25 57 50 64 55 153 135 586 452 823 603 l53
34 -20 38 c-132 259 -568 935 -840 1302 -57 77 -154 117 -235 98z"/>
<path d="M333 6149 c-104 -19 -171 -92 -187 -204 -11 -84 -19 -157 -30 -290
-4 -49 -9 -100 -11 -112 -2 -13 -7 -69 -10 -125 -4 -57 -9 -121 -10 -143 -27
-327 -27 -1272 0 -1555 2 -19 6 -73 9 -120 8 -102 25 -275 30 -310 3 -14 7
-52 11 -85 3 -33 8 -67 10 -75 2 -8 6 -33 9 -56 10 -87 35 -231 71 -404 93
-445 230 -841 400 -1150 80 -144 78 -141 100 -175 152 -238 269 -406 351 -504
81 -97 112 -132 174 -197 94 -96 186 -182 267 -246 73 -59 200 -148 210 -148
4 0 14 -6 22 -14 35 -32 325 -166 358 -166 7 0 21 -4 31 -10 9 -5 58 -20 107
-32 78 -19 123 -22 330 -25 132 -1 263 2 290 7 105 20 103 15 28 72 -226 169
-406 355 -556 570 -26 38 -47 70 -47 73 0 2 -15 28 -33 57 -28 44 -109 201
-112 218 -1 3 -9 22 -18 43 -56 128 -116 363 -132 522 -3 28 -8 68 -11 90 -6
55 -6 292 1 363 3 31 7 75 10 97 22 227 105 553 210 825 53 136 153 355 230
500 188 357 372 617 643 909 54 57 97 107 97 111 0 4 -22 26 -50 49 -27 24
-63 55 -79 69 -16 14 -95 77 -174 139 -220 174 -410 307 -812 568 -284 185
-1007 579 -1330 725 -41 18 -113 51 -160 73 -151 70 -176 77 -237 66z"/>
<path d="M6515 6107 c-332 -140 -862 -408 -1240 -627 -357 -207 -700 -429
-960 -622 -71 -53 -134 -100 -140 -105 -5 -5 -55 -44 -110 -88 -55 -44 -111
-89 -125 -101 -501 -430 -806 -775 -1027 -1164 -200 -351 -343 -687 -419 -984
-43 -169 -53 -225 -74 -401 -8 -71 -6 -360 3 -405 3 -14 8 -45 11 -70 5 -37
28 -140 50 -220 17 -59 62 -165 113 -265 32 -62 127 -212 142 -225 3 -3 19
-23 36 -45 54 -74 240 -251 342 -327 232 -173 511 -319 740 -387 217 -65 210
-64 498 -67 156 -2 287 0 310 6 22 6 56 13 75 16 62 10 234 71 332 117 140 66
330 189 438 283 118 103 263 248 340 339 23 28 52 61 64 75 56 66 239 322 303
426 282 455 424 817 553 1404 28 131 84 464 95 570 2 24 7 61 10 84 13 93 19
151 30 301 4 44 8 100 11 125 20 219 27 1062 11 1360 -16 294 -25 416 -42 585
-2 22 -7 67 -10 100 -3 33 -8 80 -12 105 -3 25 -7 55 -8 68 -6 41 -55 112 -98
139 -66 43 -141 43 -242 0z"/>
</g>
</svg>
